<svg width="20" height="24" viewBox="0 0 20 24" fill="none" xmlns="http://www.w3.org/2000/svg">
<path d="M17.5343 20.5041C16.5539 21.9569 15.5146 23.3746 13.9319 23.3981C12.3492 23.4332 11.8413 22.4725 10.046 22.4725C8.23895 22.4725 7.68383 23.3746 6.18379 23.4332C4.63654 23.4918 3.46724 21.8866 2.47511 20.4689C0.455423 17.5749 -1.09183 12.2439 0.98692 8.65858C2.01448 6.87765 3.85701 5.75286 5.85308 5.71771C7.36493 5.69427 8.80588 6.73705 9.73895 6.73705C10.6602 6.73705 12.4083 5.48338 14.239 5.67084C15.0067 5.70599 17.1563 5.97547 18.5382 7.99073C18.4319 8.06103 15.9752 9.49046 15.9988 12.4548C16.0342 15.9932 19.1287 17.1766 19.1642 17.1883C19.1287 17.2703 18.6681 18.8755 17.5343 20.5041ZM10.7901 1.75749C11.6523 0.785013 13.0815 0.0468665 14.2626 0C14.4161 1.37084 13.861 2.7534 13.0342 3.7376C12.2193 4.73351 10.8728 5.50681 9.54998 5.40136C9.37281 4.05395 10.0342 2.64795 10.7901 1.75749Z" fill="#F5F5F7"/>
</svg>
