<?xml version="1.0" encoding="UTF-8"?>
<!DOCTYPE svg PUBLIC "-//W3C//DTD SVG 1.1//EN" "http://www.w3.org/Graphics/SVG/1.1/DTD/svg11.dtd">
<!-- Creator: CorelDRAW 2026 (Versão de avaliação) -->
<svg xmlns="http://www.w3.org/2000/svg" xml:space="preserve" width="1181px" height="1181px" version="1.1" style="shape-rendering:geometricPrecision; text-rendering:geometricPrecision; image-rendering:optimizeQuality; fill-rule:evenodd; clip-rule:evenodd"
viewBox="0 0 1181 1181"
 xmlns:xlink="http://www.w3.org/1999/xlink"
 xmlns:xodm="http://www.corel.com/coreldraw/odm/2003">
 <defs>
  <style type="text/css">
   <![CDATA[
    .fil0 {fill:#FEFEFE}
    .fil1 {fill:black;fill-rule:nonzero}
   ]]>
  </style>
 </defs>
 <g id="Camada_x0020_1">
  <metadata id="CorelCorpID_0Corel-Layer"/>
  <g id="_2279011768912">
   <rect class="fil0" x="-0.45" y="0.45" width="1181" height="1181"/>
   <g id="corrida-particular.svg">
    <g>
     <path class="fil1" d="M359.82 302.6c-20.4,3.27 -42.37,11.9 -57.54,22.75 -18.96,13.47 -37.27,37.67 -45.25,59.5 -6.41,17.53 -8.24,29.69 -7.45,49.05 0.91,20.27 3.79,32.82 11.9,49.82 27.85,58.72 94.55,87.23 156.15,66.7 42.37,-14.26 72.18,-46.17 83.56,-89.45 4.58,-17.4 4.84,-43.68 0.65,-60.68 -12.03,-48.52 -48.25,-84.61 -95.46,-95.21 -13.47,-3.01 -35.7,-4.18 -46.56,-2.48l0 0zm44.6 23.28c31.38,8.5 56.88,30.07 70.35,59.5 24.59,54.01 -0.13,117.96 -54.92,141.89 -45.9,20.01 -97.95,6.15 -128.29,-34.13 -7.59,-10.2 -12.3,-19.49 -17,-33.61 -3.27,-10.07 -3.66,-12.95 -3.66,-30.73 -0.14,-17.14 0.26,-20.8 2.87,-28.78 13.47,-40.54 42.9,-67.21 83.96,-75.98 11.38,-2.35 34.39,-1.43 46.69,1.84l0 0z"/>
     <path class="fil1" d="M597.57 400.55c-9.54,3.27 -18.96,9.68 -26.94,18.31 -6.27,6.67 -9.28,12.42 -29.16,56.23 -12.16,26.81 -23.15,51.26 -24.32,54.14 -2.75,6.93 -1.18,12.29 4.44,14.65 4.71,1.96 7.72,1.31 11.12,-2.36 2.35,-2.61 19.74,-39.62 39.62,-84.48 9.29,-20.92 14.26,-27.59 24.85,-33.48l7.06 -3.92 140.59 0 140.58 0 5.62 3.01c8.24,4.45 15.7,11.64 19.36,18.83 3,6.02 31.12,67.35 42.76,93.24 6.02,13.61 12.69,23.67 37.93,56.76 18.83,24.85 23.27,32.04 25.76,41.98 0.91,4.05 1.31,23.67 1.05,62.12 -0.4,54.4 -0.53,56.36 -3.27,62.38 -1.83,4.05 -4.71,7.32 -8.37,9.81l-5.63 3.66 -163.34 0.65 -163.33 0.66 -2.49 3.13c-3.53,4.32 -3.14,8.9 1.31,13.34l3.79 3.8 108.41 0 108.29 0 0.39 16.08c0.26,9.42 1.18,18.44 2.35,22.1 2.49,7.85 10.2,16.61 18.31,20.67 6.41,3.26 6.67,3.26 41.06,3.26l34.66 0 6.93 -3.92c7.72,-4.18 12.03,-8.63 16.35,-16.87 2.48,-4.71 2.88,-7.98 3.27,-26.68l0.52 -21.31 6.93 -6.54c4.32,-4.06 8.24,-9.42 10.59,-14.65l3.8 -8.11 0.39 -58.19c0.26,-38.58 -0.13,-61.07 -1.05,-66.7 -1.96,-11.24 -8.37,-24.45 -18.04,-37.27l-7.85 -10.46 14.65 -0.66c11.64,-0.52 15.56,-1.3 20.14,-3.66 11.37,-6.01 16.6,-18.7 15.69,-38.18 -0.52,-12.16 -4.19,-18.84 -13.73,-24.46 -6.02,-3.53 -7.2,-3.66 -25.24,-4.18 -11.38,-0.26 -21.71,0.26 -25.76,1.17 -8.37,1.83 -16.48,7.59 -19.75,13.87l-2.36 4.7 -6.01 -12.29c-3.14,-6.67 -13.99,-30.21 -23.93,-52.31 -20.01,-44.33 -24.46,-51.52 -37.8,-60.16 -4.31,-2.74 -11.51,-6.14 -16.21,-7.58 -8.11,-2.49 -12.3,-2.62 -147.91,-2.49 -129.21,0 -139.93,0.27 -146.08,2.36l0 0zm442.55 135.09c1.96,1.96 2.09,16.22 0.26,21.58 -2.09,5.88 -6.02,6.93 -25.11,6.93 -15.82,0 -17.52,-0.26 -20.27,-2.88 -5.1,-4.84 -3.27,-19.48 3.14,-24.58 3.01,-2.36 5.23,-2.62 21.84,-2.62 12.68,0 19.09,0.52 20.14,1.57l0 0zm-44.21 272.01c0,12.3 -0.39,15.43 -2.61,18.96 -4.58,7.72 -7.32,8.24 -38.32,8.24 -26.94,0 -28.11,-0.13 -32.43,-3 -6.54,-4.32 -7.72,-8.11 -8.11,-24.46l-0.26 -14.38 40.93 0 40.8 0 0 14.64 0 0z"/>
     <path class="fil1" d="M612.61 444.23c-5.23,1.96 -11.24,5.88 -14.38,9.54 -3.14,3.53 -37.93,86.58 -38.71,92.33 -1.83,12.56 6.14,26.16 18.44,31.91l6.67 3.14 159.67 0c175.63,0 165.96,0.39 176.16,-7.98 7.19,-5.88 10.07,-12.42 10.07,-22.75 0,-8.11 -0.92,-10.86 -13.34,-39.63 -7.19,-17 -15.43,-36.22 -18.05,-42.5 -5.1,-12.29 -10.59,-18.96 -18.18,-22.75 -4.44,-2.1 -13.6,-2.36 -134.17,-2.62 -105.93,-0.39 -130.38,-0.13 -134.18,1.31l0 0zm261.42 21.44c1.44,1.31 4.97,7.98 7.85,14.78 2.88,6.8 10.33,24.33 16.48,38.97 12.29,29.3 13.34,33.74 7.84,38.06 -3.53,2.75 -3.66,2.75 -160.98,2.75l-157.59 0 -3.79 -3.8c-2.09,-2.09 -3.79,-5.1 -3.79,-6.8 0,-3.92 32.43,-79.64 35.7,-83.3l2.62 -2.88 126.59 0c118.48,0 126.59,0.13 129.07,2.22l0 0z"/>
     <path class="fil1" d="M271.68 583.9c-50.22,9.8 -97.17,44.07 -121.23,88.14 -10.07,18.31 -14.52,33.22 -19.49,65.52 -2.48,15.69 -6.66,41.85 -9.28,58.06 -3.01,18.96 -4.45,31.26 -3.92,34.66 2.09,13.21 10.33,23.93 22.1,28.77 16.34,6.93 63.42,13.34 135.48,18.44 32.56,2.35 148.3,3.53 177.2,1.7 80.95,-4.97 135.62,-11.25 158.11,-18.18 17.52,-5.49 27.59,-18.44 27.33,-35.18 0,-7.71 -11.51,-83.3 -16.87,-111.16 -8.5,-44.46 -38.58,-84.87 -81.99,-109.72 -19.49,-11.11 -46.43,-20.66 -62.38,-22.1 -7.85,-0.65 -10.2,-0.13 -26.16,5.23 -25.24,8.5 -40.15,10.72 -75.2,10.59 -33.6,0 -49.43,-2.35 -72.45,-11.11 -14.12,-5.23 -19.87,-6.02 -31.25,-3.66zm27.46 24.45c43.81,15.56 116.65,15.04 161.12,-1.18 12.68,-4.57 13.99,-4.57 29.55,-0.52 24.59,6.54 56.24,24.98 72.98,42.37 16.21,16.87 28.64,37.27 34.78,57.67 3.01,9.94 10.46,53.1 17.79,102.79 4.18,28.77 2.48,30.47 -36.62,37.14 -8.24,1.31 -18.57,2.88 -22.88,3.27 -4.32,0.4 -9.16,1.05 -10.73,1.44l-2.88 0.53 -0.39 -50.88c-0.39,-47.86 -0.52,-51 -2.87,-53.61 -3.4,-3.8 -11.25,-3.8 -14.65,0 -2.36,2.61 -2.49,6.01 -3.14,54.66l-0.65 51.79 -11.77 0.91c-6.41,0.39 -16.61,1.18 -22.5,1.57 -43.41,3.27 -145.81,4.32 -180.86,2.09 -8.24,-0.52 -27.46,-1.83 -42.76,-2.61l-27.73 -1.7 -0.39 -52.18 -0.39 -52.31 -3.14 -2.49c-4.58,-3.66 -11.12,-3.27 -14.39,0.92 -2.61,3.4 -2.74,4.84 -2.74,53.62 0,27.59 -0.26,50.21 -0.66,50.21 -3.14,0 -41.85,-5.88 -51.65,-7.84 -13.86,-2.88 -17.92,-5.1 -21.32,-12.16l-2.48 -4.84 8.1 -52.05c8.63,-55.32 11.9,-69.84 18.97,-84.88 20.14,-42.76 59.63,-73.36 111.15,-85.92 4.71,-1.04 11.64,0.14 23.15,4.19l0 0z"/>
     <path class="fil1" d="M902.02 632.94c-8.37,3.13 -18.83,13.34 -23.02,22.75 -3.14,6.93 -3.66,9.68 -3.53,19.36 0.13,13.6 3.79,22.36 12.16,29.55 8.9,7.72 13.87,8.63 43.55,8.63 29.69,0 36.1,-1.17 45.38,-8.24 7.85,-6.01 12.29,-13.99 14.91,-26.94 4.05,-20.66 0.13,-35.18 -11.51,-43.02l-5.36 -3.53 -33.48 -0.26c-27.33,-0.27 -34.52,0.13 -39.1,1.7l0 0zm66.17 19.61c2.62,1.83 2.88,3.01 2.88,14 0,14.12 -2.23,19.61 -9.29,23.4 -3.79,2.1 -7.71,2.36 -30.21,2.36l-25.76 0 -4.71 -4.06c-4.31,-3.92 -4.57,-4.44 -4.57,-12.55 0,-4.71 0.78,-9.94 1.83,-11.9 2.61,-4.97 8.89,-10.59 13.34,-12.03 2.09,-0.53 15.03,-1.18 28.63,-1.18 20.54,-0.13 25.38,0.26 27.86,1.96l0 0z"/>
     <path class="fil1" d="M657.47 655.3c-2.75,1.05 -5.76,8.24 -4.97,11.64 1.83,7.19 -0.39,7.06 93.24,7.06 47.47,0 87.36,-0.26 88.54,-0.79 3,-1.17 6.14,-7.71 5.1,-10.59 -0.4,-1.31 -1.96,-3.66 -3.4,-5.36l-2.62 -2.88 -87.1 0.13c-47.86,0 -87.88,0.4 -88.79,0.79z"/>
     <path class="fil1" d="M662.57 715.32c-5.1,4.32 -5.36,9.68 -0.79,14.26l3.14 3.27 83.05 0c45.63,0 83.95,-0.39 85.13,-0.79 2.35,-0.91 5.88,-7.19 5.88,-10.33 0,-1.17 -1.7,-3.92 -3.79,-6.01l-3.79 -3.8 -82.39 0 -82.39 0 -4.05 3.4 0 0z"/>
    </g>
   </g>
  </g>
 </g>
</svg>
