<svg width="12" height="18" viewBox="0 0 12 18" fill="none" xmlns="http://www.w3.org/2000/svg">
<path d="M6.92934 18V16.4074C8.49972 16.323 9.69361 15.8801 10.6162 15.0785C11.5387 14.277 12 13.2117 12 11.9777C12 10.6488 11.6269 9.66797 10.8027 9.0457C9.96834 8.33906 8.77445 7.80117 7.01752 7.45312H6.92934V3.36797C8.12663 3.54727 9.14415 3.89531 10.1549 4.6125L11.6337 2.66133C10.1549 1.68047 8.58451 1.15312 6.92595 1.06875V0H5.54211V1.06523C4.15828 1.14961 2.95421 1.59258 2.03166 2.39414C1.1091 3.1957 0.647824 4.26094 0.647824 5.49492C0.647824 6.72891 1.02092 7.70977 1.84511 8.33203C2.58112 8.9543 3.87337 9.48164 5.53194 9.84023V14.0063C4.23629 13.827 2.94404 13.2047 1.65856 12.1395L0 14.0063C1.65856 15.4301 3.51046 16.2211 5.53872 16.4004V18H6.92934ZM7.01752 10.2797C7.94008 10.5434 8.49633 10.807 8.86263 11.0813C9.13737 11.4398 9.32391 11.7879 9.32391 12.3258C9.32391 12.8637 9.13737 13.2117 8.67609 13.5703C8.21481 13.9289 7.65517 14.0977 7.01752 14.1926V10.2797ZM3.79197 6.46875C3.51724 6.20508 3.3307 5.76211 3.3307 5.31914C3.3307 4.7918 3.51724 4.4332 3.88016 4.07461C4.34144 3.71602 4.80271 3.54727 5.53872 3.45234V7.27031C4.61617 6.99609 4.06671 6.73242 3.79197 6.46875Z" fill="#22FF9F"/>
</svg>
