<?xml version="1.0" encoding="UTF-8"?>
<!DOCTYPE svg PUBLIC "-//W3C//DTD SVG 1.1//EN" "http://www.w3.org/Graphics/SVG/1.1/DTD/svg11.dtd">
<!-- Creator: CorelDRAW 2026 (Versão de avaliação) -->
<svg xmlns="http://www.w3.org/2000/svg" xml:space="preserve" width="40px" height="40px" version="1.1" style="shape-rendering:geometricPrecision; text-rendering:geometricPrecision; image-rendering:optimizeQuality; fill-rule:evenodd; clip-rule:evenodd"
viewBox="0 0 40 40"
 xmlns:xlink="http://www.w3.org/1999/xlink"
 xmlns:xodm="http://www.corel.com/coreldraw/odm/2003"
 xmlns:dc="http://purl.org/dc/elements/1.1/"
 xmlns:cc="http://creativecommons.org/ns#"
 xmlns:rdf="http://www.w3.org/1999/02/22-rdf-syntax-ns#"
 xmlns:svg="http://www.w3.org/2000/svg"
 xmlns:sodipodi="http://sodipodi.sourceforge.net/DTD/sodipodi-0.dtd"
 xmlns:inkscape="http://www.inkscape.org/namespaces/inkscape"
 sodipodi:docname="99-app-logo-2.svg"
 inkscape:version="0.92.2 (5c3e80d, 2017-08-06)">
 <defs>
  <style type="text/css">
   <![CDATA[
    .fil0 {fill:black}
    .fil1 {fill:white}
   ]]>
  </style>
 </defs>
 <g id="Camada_x0020_1">
  <metadata id="CorelCorpID_0Corel-Layer"/>
  <sodipodi:namedview pagecolor="#ffffff" bordercolor="#666666" borderopacity="1" objecttolerance="10" gridtolerance="10" guidetolerance="10" inkscape:pageopacity="0" inkscape:pageshadow="2" inkscape:window-width="1600" inkscape:window-height="837" id="namedview14" showgrid="false" inkscape:zoom="1.668772" inkscape:cx="68.076008" inkscape:cy="114.75218" inkscape:window-x="-8" inkscape:window-y="-8" inkscape:window-maximized="1" inkscape:current-layer="LOGO_ANDROID" fit-margin-top="0" fit-margin-left="0" fit-margin-right="0" fit-margin-bottom="0"/>
  <g id="_2075539825600">
   <rect id="rect834" class="fil0" x="-0.01" y="-0.01" width="40.01" height="40.01" inkscape:export-filename="C:\Users\suitedoalex\sites\uber-logo-15.png" inkscape:export-xdpi="30.308342" inkscape:export-ydpi="30.308342"/>
   <path id="path2-1" class="fil1" d="M5.5 21.15c0,1.72 1.13,2.83 2.61,2.83 1.48,0 2.61,-1.14 2.61,-2.83l0 -6.55 1.6 0 0 10.62 -1.58 0 0 -0.98c-0.71,0.74 -1.7,1.16 -2.81,1.16 -2.28,0 -4.02,-1.65 -4.02,-4.16l0 -6.64 1.59 0 0 6.55zm8.38 4.07l0 -10.62 1.53 0 0 3.87c0.73,-0.74 1.71,-1.16 2.74,-1.16 0.01,0 0.01,0 0.01,0 2.28,0 4.07,1.81 4.07,4.06 0,2.23 -1.79,4.03 -4.07,4.03 -1.08,0 -2.06,-0.44 -2.76,-1.15l0 0.97 -1.52 0zm1.51 -3.85c0,1.48 1.18,2.68 2.67,2.68 1.45,0 2.65,-1.2 2.65,-2.68 0,-1.51 -1.2,-2.69 -2.65,-2.69 -1.48,0 -2.67,1.18 -2.67,2.69zm7.75 -0.02c0,-2.19 1.72,-4.02 3.98,-4.02 2.23,0 3.87,1.71 3.87,4.02l0 0.5 -6.3 0c0.21,1.26 1.26,2.2 2.57,2.2 0.89,0 1.65,-0.36 2.23,-1.13l1.11 0.81c-0.78,1.04 -1.93,1.66 -3.34,1.66 -2.33,0 -4.12,-1.73 -4.12,-4.04l0 0zm3.95 -2.69c-1.14,0 -2.1,0.79 -2.37,1.98l4.72 0c-0.26,-1.19 -1.21,-1.98 -2.35,-1.98l0 0zm9 0.19l-0.64 0c-1,0 -1.73,0.77 -1.73,1.97l0 4.4 -1.53 0 0 -7.74 1.52 0 0 0.96c0.38,-0.63 1,-1.02 1.85,-1.02l0.53 0 0 1.43z" inkscape:connector-curvature="0" inkscape:export-filename="C:\Users\suitedoalex\sites\uber-logo-15.png" inkscape:export-xdpi="30.308342" inkscape:export-ydpi="30.308342"/>
  </g>
 </g>
</svg>
