<svg width="22" height="21" viewBox="0 0 22 21" fill="none" xmlns="http://www.w3.org/2000/svg">
<path d="M17.0136 0.108338C16.7663 0.183412 16.7398 0.368888 16.9032 0.889986C17.0313 1.3051 17.0313 1.30951 16.9518 1.30951C16.7751 1.30951 16.0774 1.61422 15.7285 1.84386C14.7349 2.49744 13.8958 3.70304 13.6132 4.8733L13.5602 5.10735H13.3262H13.0965L13.07 4.60833C13.0435 4.01216 12.9243 3.53964 12.6858 3.03621C12.125 1.87036 11.1667 1.07988 9.90369 0.748671C9.30311 0.589692 8.47288 0.589692 7.87229 0.748671C6.60488 1.07988 5.63334 1.88361 5.08574 3.04945C4.84727 3.56614 4.73245 4.02099 4.70596 4.60833L4.67946 5.10735H3.05876C1.26582 5.10735 1.16867 5.1206 0.797718 5.38557C0.50184 5.59312 0.289867 5.88017 0.188297 6.20696C0.0999756 6.48076 0.0999756 6.61765 0.0999756 12.3012C0.0999756 17.3267 0.108808 18.1525 0.166217 18.3954C0.347277 19.1593 0.939033 19.782 1.71185 20.0205C1.96357 20.0956 2.32127 20.1 9.30752 20.1C16.2938 20.1 16.6515 20.0956 16.9032 20.0205C17.6716 19.782 18.2678 19.1549 18.4488 18.3954C18.4974 18.1834 18.5151 17.8257 18.5151 16.9425L18.5195 15.7722L18.7138 15.653C18.9523 15.5072 19.1554 15.2334 19.2437 14.942C19.3365 14.6284 19.3365 13.1181 19.2437 12.8046C19.1554 12.5131 18.9523 12.2393 18.7138 12.0936L18.5195 11.9744L18.5151 10.8041C18.5151 9.50136 18.4797 9.25406 18.2413 8.80803C18.0735 8.49008 17.5965 8.0308 17.2653 7.87182C17.1328 7.80558 16.9032 7.72609 16.753 7.6996L16.4881 7.65102L16.4748 6.60441C16.4616 5.61962 16.4572 5.54896 16.3688 5.42973C16.2143 5.22217 16.0067 5.10735 15.7815 5.10735C15.5872 5.10294 15.5828 5.10294 15.6667 5.03669C16.02 4.75406 17.0268 4.42286 17.6098 4.39636L17.9189 4.3787L18.0558 4.90863C18.1309 5.20009 18.2148 5.48272 18.2457 5.54013C18.3075 5.65936 18.4842 5.70794 18.6211 5.64611C18.7005 5.61079 21.0632 2.48419 21.2398 2.17507C21.3105 2.05142 21.3105 1.92335 21.2354 1.8262C21.1824 1.75996 17.442 0.178996 17.1682 0.108338C17.1196 0.0995062 17.0489 0.0950901 17.0136 0.108338ZM19.0362 1.55682C19.7825 1.86153 20.4052 2.12649 20.4228 2.14416C20.4626 2.17948 18.6961 4.58625 18.652 4.55534C18.6343 4.54651 18.5946 4.42286 18.5636 4.28154C18.493 3.97242 18.4091 3.80461 18.3163 3.76486C18.2015 3.7207 17.6274 3.73395 17.2521 3.78694C16.0111 3.95917 14.8321 4.64366 14.2226 5.54454L14.1431 5.65936V5.52246C14.1431 5.30608 14.311 4.71874 14.492 4.30362C15.0396 3.0627 16.0818 2.13974 17.1947 1.9101C17.6407 1.81737 17.6583 1.80853 17.7202 1.6628C17.7599 1.56565 17.7555 1.49499 17.7025 1.3051C17.6274 1.05338 17.6186 1.00039 17.6583 1.00039C17.6716 1.00039 18.2943 1.25211 19.0362 1.55682ZM9.75355 1.35368C10.385 1.51707 10.8576 1.78204 11.3566 2.25456C12.6196 3.46015 12.8051 5.39881 11.7938 6.86496C11.7143 6.97977 11.5288 7.19616 11.3743 7.34631L11.096 7.62452H8.88799H6.67995L6.40174 7.34631C6.05286 7.00185 5.88064 6.74572 5.66425 6.28645C5.41695 5.7521 5.34187 5.3944 5.34187 4.79823C5.35071 3.78694 5.71283 2.93022 6.4194 2.25456C6.914 1.78645 7.38652 1.51707 8.00478 1.35809C8.47288 1.23444 9.28103 1.23444 9.75355 1.35368ZM4.9091 6.12305C5.06366 6.59557 5.19173 6.85171 5.50527 7.28448L5.75257 7.62894L3.54894 7.61569L1.34973 7.60244L1.17309 7.47879C1.07152 7.40813 0.943449 7.25799 0.872791 7.13434C0.771221 6.94003 0.753557 6.86937 0.771221 6.6309C0.788886 6.33061 0.9302 6.05681 1.13776 5.91991C1.41597 5.73885 1.51754 5.73002 3.18241 5.73885L4.78986 5.74768L4.9091 6.12305ZM13.4719 6.14513C13.4807 6.8782 13.5867 7.27124 13.7899 7.33748C13.9268 7.38164 14.1299 7.28007 14.1785 7.14759C14.2005 7.08134 14.2756 6.8782 14.3374 6.69273C14.4037 6.51167 14.5494 6.21579 14.6598 6.04356L14.8674 5.7256H15.3443C15.7992 5.7256 15.8213 5.73002 15.8433 5.82276C15.8566 5.88017 15.861 6.2997 15.8566 6.76339L15.8433 7.60244L13.9356 7.61569L12.0278 7.62452L12.2751 7.28448C12.5622 6.88262 12.783 6.44543 12.9111 6.02148L12.9994 5.7256H13.2334H13.4675L13.4719 6.14513ZM8.9984 8.28694L16.6824 8.30902L16.9297 8.42383C17.2653 8.58281 17.4994 8.80362 17.6804 9.13483L17.8306 9.41304L17.8438 10.6363L17.8571 11.8596L15.8787 11.8728C13.9003 11.886 13.9003 11.886 13.6662 11.992C13.3659 12.1289 13.0789 12.4469 12.9817 12.7472C12.8801 13.0651 12.8713 14.6505 12.9729 14.9861C13.0612 15.2864 13.3615 15.6176 13.6662 15.7545C13.9003 15.8605 13.9003 15.8605 15.8787 15.8738L17.8571 15.887L17.8438 17.1103L17.8306 18.3335L17.6804 18.6118C17.4994 18.943 17.2653 19.1638 16.9297 19.3227L16.6824 19.4376H9.30752H1.93265L1.63677 19.2918C1.30998 19.1329 1.04943 18.8679 0.88604 18.5411L0.784469 18.3335L0.771221 13.1623L0.762389 7.99106L1.03619 8.12796L1.30998 8.26486L8.9984 8.28694ZM18.2854 12.5882C18.3517 12.6235 18.4532 12.703 18.5151 12.7693L18.6255 12.8885V13.8777V14.8669L18.4577 15.0303L18.2943 15.1981L16.1701 15.2114C13.8163 15.2246 13.8384 15.2246 13.6574 14.9332C13.5779 14.8007 13.569 14.7168 13.569 13.8733C13.569 13.0342 13.5779 12.9459 13.6574 12.8134C13.834 12.5264 13.8119 12.5264 16.0995 12.5264C17.7908 12.5264 18.1883 12.5396 18.2854 12.5882Z" fill="#FF3D3D" stroke="#FF3D3D" stroke-width="0.2"/>
<path d="M8.69387 2.19717C8.5923 2.27666 8.57905 2.31641 8.57905 2.56813C8.57905 2.83751 8.57463 2.84634 8.43773 2.90375C8.04912 3.06273 7.73999 3.52642 7.73999 3.95478C7.73999 4.52004 7.97404 4.82916 8.58346 5.05438C9.07807 5.23986 9.23704 5.32818 9.34303 5.4695C9.42252 5.57548 9.42694 5.61081 9.38278 5.76096C9.30329 6.02592 9.14431 6.14516 8.87934 6.14516C8.68945 6.14516 8.64529 6.12749 8.53047 5.99943C8.4554 5.91552 8.39357 5.78304 8.37591 5.67264C8.35824 5.57548 8.30967 5.45625 8.26109 5.40767C8.15069 5.29727 7.95196 5.3061 7.83714 5.42975C7.55893 5.72121 7.92547 6.52494 8.42007 6.70159L8.57905 6.75899V7.03721C8.57905 7.35958 8.66737 7.49207 8.88817 7.49207C9.10898 7.49207 9.1973 7.35958 9.1973 7.03279C9.1973 6.77666 9.20613 6.75016 9.29887 6.72367C9.47993 6.6795 9.76256 6.44104 9.88621 6.22906C10.0629 5.92877 10.0893 5.43417 9.9392 5.15154C9.8023 4.89982 9.54617 4.72318 9.03832 4.54212C8.55255 4.36547 8.38032 4.21974 8.38032 3.95919C8.38032 3.32769 9.29004 3.27912 9.40044 3.91062C9.44902 4.18 9.52851 4.26832 9.72723 4.26832C10.3102 4.26832 10.0054 3.17755 9.33861 2.90375C9.20172 2.84634 9.1973 2.83751 9.1973 2.56813C9.1973 2.31641 9.18405 2.27666 9.08248 2.19717C9.01624 2.14418 8.93233 2.10444 8.88817 2.10444C8.84401 2.10444 8.76011 2.14418 8.69387 2.19717Z" fill="#FF3D3D"/>
<path d="M14.5628 12.9592C14.0019 13.2241 13.8032 13.8865 14.1256 14.412C14.501 15.0126 15.4239 15.0126 15.7949 14.4076C16.0908 13.9351 15.9539 13.3213 15.4946 13.0386C15.2208 12.8664 14.8278 12.8355 14.5628 12.9592ZM15.2252 13.6304C15.4328 13.838 15.2649 14.2222 14.9647 14.2222C14.6953 14.2222 14.523 13.966 14.6379 13.7276C14.7527 13.4935 15.0353 13.4493 15.2252 13.6304Z" fill="#FF3D3D"/>
</svg>
